<?xml version="1.0" encoding="utf-8" standalone="no"?>
<!DOCTYPE svg PUBLIC "-//W3C//DTD SVG 1.1//EN"
  "http://www.w3.org/Graphics/SVG/1.1/DTD/svg11.dtd">
<!-- Created with matplotlib (http://matplotlib.org/) -->
<svg height="306pt" version="1.1" viewBox="0 0 409 306" width="409pt" xmlns="http://www.w3.org/2000/svg" xmlns:xlink="http://www.w3.org/1999/xlink">
 <defs>
  <style type="text/css">
*{stroke-linecap:butt;stroke-linejoin:round;}
  </style>
 </defs>
 <g id="figure_1">
  <g id="patch_1">
   <path d="M -0 306.990052 
L 409.940587 306.990052 
L 409.940587 0 
L -0 0 
z
" style="fill:#ffffff;"/>
  </g>
  <g id="axes_1">
   <g id="patch_2">
    <path d="M 45.720587 201.816098 
L 402.840587 201.816098 
L 402.840587 7.1 
L 45.720587 7.1 
z
" style="fill:#ffffff;"/>
   </g>
   <g id="PolyCollection_1">
    <path clip-path="url(#p8858f37f0d)" d="M 61.953314 30161.224507 
L 61.953314 30161.224507 
L 61.953314 30161.224507 
L 70.27779 30161.224507 
L 70.27779 135.082365 
L 78.602266 135.082365 
L 78.602266 73.276807 
L 86.926741 73.276807 
L 86.926741 45.766669 
L 95.251217 45.766669 
L 95.251217 31.861873 
L 103.575692 31.861873 
L 103.575692 25.148793 
L 111.900168 25.148793 
L 111.900168 22.638538 
L 120.224643 22.638538 
L 120.224643 22.769262 
L 128.549119 22.769262 
L 128.549119 24.625604 
L 136.873594 24.625604 
L 136.873594 27.608629 
L 145.19807 27.608629 
L 145.19807 31.367383 
L 153.522545 31.367383 
L 153.522545 35.631157 
L 161.847021 35.631157 
L 161.847021 40.221323 
L 170.171496 40.221323 
L 170.171496 45.033381 
L 178.495972 45.033381 
L 178.495972 50.143155 
L 186.820447 50.143155 
L 186.820447 55.388176 
L 195.144923 55.388176 
L 195.144923 60.766592 
L 203.469398 60.766592 
L 203.469398 66.236329 
L 211.793874 66.236329 
L 211.793874 71.737393 
L 220.118349 71.737393 
L 220.118349 77.277208 
L 228.442825 77.277208 
L 228.442825 82.818534 
L 236.767301 82.818534 
L 236.767301 88.339748 
L 245.091776 88.339748 
L 245.091776 93.831585 
L 253.416252 93.831585 
L 253.416252 99.276117 
L 261.740727 99.276117 
L 261.740727 104.712395 
L 270.065203 104.712395 
L 270.065203 110.102369 
L 278.389678 110.102369 
L 278.389678 115.449271 
L 286.714154 115.449271 
L 286.714154 120.83438 
L 295.038629 120.83438 
L 295.038629 126.126985 
L 303.363105 126.126985 
L 303.363105 131.310932 
L 311.68758 131.310932 
L 311.68758 136.531367 
L 320.012056 136.531367 
L 320.012056 141.762305 
L 328.336531 141.762305 
L 328.336531 146.974842 
L 336.661007 146.974842 
L 336.661007 152.085361 
L 344.985482 152.085361 
L 344.985482 157.170855 
L 353.309958 157.170855 
L 353.309958 162.217179 
L 361.634433 162.217179 
L 361.634433 167.26893 
L 369.958909 167.26893 
L 369.958909 172.291558 
L 378.283384 172.291558 
L 378.283384 177.188376 
L 386.60786 177.188376 
L 386.60786 165.605811 
L 386.60786 165.605811 
L 378.283384 165.605811 
L 378.283384 160.848866 
L 369.958909 160.848866 
L 369.958909 155.961232 
L 361.634433 155.961232 
L 361.634433 151.04984 
L 353.309958 151.04984 
L 353.309958 146.144399 
L 344.985482 146.144399 
L 344.985482 141.19943 
L 336.661007 141.19943 
L 336.661007 136.232181 
L 328.336531 136.232181 
L 328.336531 131.162125 
L 320.012056 131.162125 
L 320.012056 126.077616 
L 311.68758 126.077616 
L 311.68758 121.00644 
L 303.363105 121.00644 
L 303.363105 115.968913 
L 295.038629 115.968913 
L 295.038629 110.826616 
L 286.714154 110.826616 
L 286.714154 105.595661 
L 278.389678 105.595661 
L 278.389678 100.40411 
L 270.065203 100.40411 
L 270.065203 95.168962 
L 261.740727 95.168962 
L 261.740727 89.890761 
L 253.416252 89.890761 
L 253.416252 84.609166 
L 245.091776 84.609166 
L 245.091776 79.278192 
L 236.767301 79.278192 
L 236.767301 73.92345 
L 228.442825 73.92345 
L 228.442825 68.547463 
L 220.118349 68.547463 
L 220.118349 63.176727 
L 211.793874 63.176727 
L 211.793874 57.840248 
L 203.469398 57.840248 
L 203.469398 52.536063 
L 195.144923 52.536063 
L 195.144923 47.322034 
L 186.820447 47.322034 
L 186.820447 42.236457 
L 178.495972 42.236457 
L 178.495972 37.279214 
L 170.171496 37.279214 
L 170.171496 32.613945 
L 161.847021 32.613945 
L 161.847021 28.169263 
L 153.522545 28.169263 
L 153.522545 24.058059 
L 145.19807 24.058059 
L 145.19807 20.459637 
L 136.873594 20.459637 
L 136.873594 17.639895 
L 128.549119 17.639895 
L 128.549119 15.950732 
L 120.224643 15.950732 
L 120.224643 15.992239 
L 111.900168 15.992239 
L 111.900168 18.680627 
L 103.575692 18.680627 
L 103.575692 25.593736 
L 95.251217 25.593736 
L 95.251217 39.754695 
L 86.926741 39.754695 
L 86.926741 67.651158 
L 78.602266 67.651158 
L 78.602266 130.015737 
L 70.27779 130.015737 
L 70.27779 30161.224507 
L 61.953314 30161.224507 
L 61.953314 30161.224507 
z
" style="fill:#0000ff;fill-opacity:0.4;"/>
   </g>
   <g id="PolyCollection_2">
    <path clip-path="url(#p8858f37f0d)" d="M 61.953314 30161.224507 
L 61.953314 30161.224507 
L 61.953314 30161.224507 
L 70.27779 30161.224507 
L 70.27779 138.730502 
L 78.602266 138.730502 
L 78.602266 77.890602 
L 86.926741 77.890602 
L 86.926741 51.192828 
L 95.251217 51.192828 
L 95.251217 37.765726 
L 103.575692 37.765726 
L 103.575692 31.318824 
L 111.900168 31.318824 
L 111.900168 29.059924 
L 120.224643 29.059924 
L 120.224643 29.993668 
L 128.549119 29.993668 
L 128.549119 32.213027 
L 136.873594 32.213027 
L 136.873594 35.364438 
L 145.19807 35.364438 
L 145.19807 39.527794 
L 153.522545 39.527794 
L 153.522545 43.884162 
L 161.847021 43.884162 
L 161.847021 49.060503 
L 170.171496 49.060503 
L 170.171496 54.350685 
L 178.495972 54.350685 
L 178.495972 59.696243 
L 186.820447 59.696243 
L 186.820447 65.289762 
L 195.144923 65.289762 
L 195.144923 70.927447 
L 203.469398 70.927447 
L 203.469398 77.195429 
L 211.793874 77.195429 
L 211.793874 82.842828 
L 220.118349 82.842828 
L 220.118349 88.214418 
L 228.442825 88.214418 
L 228.442825 94.548286 
L 236.767301 94.548286 
L 236.767301 99.912773 
L 245.091776 99.912773 
L 245.091776 106.070552 
L 253.416252 106.070552 
L 253.416252 111.620744 
L 261.740727 111.620744 
L 261.740727 117.352577 
L 270.065203 117.352577 
L 270.065203 123.01122 
L 278.389678 123.01122 
L 278.389678 128.604957 
L 286.714154 128.604957 
L 286.714154 134.61174 
L 295.038629 134.61174 
L 295.038629 140.166672 
L 303.363105 140.166672 
L 303.363105 145.407796 
L 311.68758 145.407796 
L 311.68758 150.174714 
L 320.012056 150.174714 
L 320.012056 156.426541 
L 328.336531 156.426541 
L 328.336531 161.720349 
L 336.661007 161.720349 
L 336.661007 166.832237 
L 344.985482 166.832237 
L 344.985482 172.267784 
L 353.309958 172.267784 
L 353.309958 177.689378 
L 361.634433 177.689378 
L 361.634433 182.684565 
L 369.958909 182.684565 
L 369.958909 187.969516 
L 378.283384 187.969516 
L 378.283384 192.965366 
L 386.60786 192.965366 
L 386.60786 181.914634 
L 386.60786 181.914634 
L 378.283384 181.914634 
L 378.283384 177.090624 
L 369.958909 177.090624 
L 369.958909 171.88983 
L 361.634433 171.88983 
L 361.634433 167.02154 
L 353.309958 167.02154 
L 353.309958 161.750467 
L 344.985482 161.750467 
L 344.985482 156.428084 
L 336.661007 156.428084 
L 336.661007 151.489391 
L 328.336531 151.489391 
L 328.336531 146.322521 
L 320.012056 146.322521 
L 320.012056 140.221789 
L 311.68758 140.221789 
L 311.68758 135.545162 
L 303.363105 135.545162 
L 303.363105 130.51936 
L 295.038629 130.51936 
L 295.038629 125.046976 
L 286.714154 125.046976 
L 286.714154 119.238437 
L 278.389678 119.238437 
L 278.389678 113.782688 
L 270.065203 113.782688 
L 270.065203 108.246103 
L 261.740727 108.246103 
L 261.740727 102.70385 
L 253.416252 102.70385 
L 253.416252 97.252805 
L 245.091776 97.252805 
L 245.091776 91.283044 
L 236.767301 91.283044 
L 236.767301 86.126216 
L 228.442825 86.126216 
L 228.442825 79.868741 
L 220.118349 79.868741 
L 220.118349 74.692776 
L 211.793874 74.692776 
L 211.793874 69.201682 
L 203.469398 69.201682 
L 203.469398 63.071915 
L 195.144923 63.071915 
L 195.144923 57.602994 
L 186.820447 57.602994 
L 186.820447 52.135512 
L 178.495972 52.135512 
L 178.495972 46.953275 
L 170.171496 46.953275 
L 170.171496 41.794731 
L 161.847021 41.794731 
L 161.847021 36.737206 
L 153.522545 36.737206 
L 153.522545 32.526751 
L 145.19807 32.526751 
L 145.19807 28.508728 
L 136.873594 28.508728 
L 136.873594 25.505515 
L 128.549119 25.505515 
L 128.549119 23.451648 
L 120.224643 23.451648 
L 120.224643 22.650817 
L 111.900168 22.650817 
L 111.900168 25.085442 
L 103.575692 25.085442 
L 103.575692 31.719057 
L 95.251217 31.719057 
L 95.251217 45.387157 
L 86.926741 45.387157 
L 86.926741 72.446105 
L 78.602266 72.446105 
L 78.602266 133.805916 
L 70.27779 133.805916 
L 70.27779 30161.224507 
L 61.953314 30161.224507 
L 61.953314 30161.224507 
z
" style="fill:#ff0000;fill-opacity:0.4;"/>
   </g>
   <g id="matplotlib.axis_1">
    <g id="xtick_1">
     <g id="line2d_1">
      <defs>
       <path d="M 0 0 
L 0 3.5 
" id="m866ae36826" style="stroke:#000000;stroke-width:0.8;"/>
      </defs>
      <g>
       <use style="stroke:#000000;stroke-width:0.8;" x="57.791077" xlink:href="#m866ae36826" y="201.816098"/>
      </g>
     </g>
    </g>
    <g id="xtick_2">
     <g id="line2d_2">
      <g>
       <use style="stroke:#000000;stroke-width:0.8;" x="99.413454" xlink:href="#m866ae36826" y="201.816098"/>
      </g>
     </g>
    </g>
    <g id="xtick_3">
     <g id="line2d_3">
      <g>
       <use style="stroke:#000000;stroke-width:0.8;" x="141.035832" xlink:href="#m866ae36826" y="201.816098"/>
      </g>
     </g>
    </g>
    <g id="xtick_4">
     <g id="line2d_4">
      <g>
       <use style="stroke:#000000;stroke-width:0.8;" x="182.65821" xlink:href="#m866ae36826" y="201.816098"/>
      </g>
     </g>
    </g>
    <g id="xtick_5">
     <g id="line2d_5">
      <g>
       <use style="stroke:#000000;stroke-width:0.8;" x="224.280587" xlink:href="#m866ae36826" y="201.816098"/>
      </g>
     </g>
    </g>
    <g id="xtick_6">
     <g id="line2d_6">
      <g>
       <use style="stroke:#000000;stroke-width:0.8;" x="265.902965" xlink:href="#m866ae36826" y="201.816098"/>
      </g>
     </g>
    </g>
    <g id="xtick_7">
     <g id="line2d_7">
      <g>
       <use style="stroke:#000000;stroke-width:0.8;" x="307.525342" xlink:href="#m866ae36826" y="201.816098"/>
      </g>
     </g>
    </g>
    <g id="xtick_8">
     <g id="line2d_8">
      <g>
       <use style="stroke:#000000;stroke-width:0.8;" x="349.14772" xlink:href="#m866ae36826" y="201.816098"/>
      </g>
     </g>
    </g>
    <g id="xtick_9">
     <g id="line2d_9">
      <g>
       <use style="stroke:#000000;stroke-width:0.8;" x="390.770098" xlink:href="#m866ae36826" y="201.816098"/>
      </g>
     </g>
    </g>
   </g>
   <g id="matplotlib.axis_2">
    <g id="ytick_1">
     <g id="line2d_10">
      <defs>
       <path d="M 0 0 
L -3.5 0 
" id="mfcb314a09a" style="stroke:#000000;stroke-width:0.8;"/>
      </defs>
      <g>
       <use style="stroke:#000000;stroke-width:0.8;" x="45.720587" xlink:href="#mfcb314a09a" y="112.570057"/>
      </g>
     </g>
     <g id="text_1">
      <!-- $10^{-4}$ -->
      <defs>
       <path d="M 26.59375 63.40625 
C 26.59375 65.5 26.5 65.5 25.09375 65.5 
C 21.203125 61.1875 15.296875 59.796875 9.703125 59.796875 
C 9.40625 59.796875 8.90625 59.796875 8.796875 59.5 
C 8.703125 59.296875 8.703125 59.09375 8.703125 57 
C 11.796875 57 17 57.59375 21 59.984375 
L 21 7.203125 
C 21 3.6875 20.796875 2.5 12.203125 2.5 
L 9.203125 2.5 
L 9.203125 0 
C 14 0 19 0 23.796875 0 
C 28.59375 0 33.59375 0 38.40625 0 
L 38.40625 2.5 
L 35.40625 2.5 
C 26.796875 2.5 26.59375 3.59375 26.59375 7.15625 
z
" id="CMR17-49"/>
       <path d="M 42 31.640625 
C 42 37.75 41.90625 48.125 37.703125 56.109375 
C 34 63.109375 28.09375 65.59375 22.90625 65.59375 
C 18.09375 65.59375 12 63.40625 8.203125 56.203125 
C 4.203125 48.71875 3.796875 39.4375 3.796875 31.640625 
C 3.796875 25.953125 3.90625 17.28125 7 9.671875 
C 11.296875 -0.609375 19 -2 22.90625 -2 
C 27.5 -2 34.5 -0.109375 38.59375 9.375 
C 41.59375 16.28125 42 24.359375 42 31.640625 
M 22.90625 -0.40625 
C 16.5 -0.40625 12.703125 5.078125 11.296875 12.6875 
C 10.203125 18.5625 10.203125 27.15625 10.203125 32.75 
C 10.203125 40.4375 10.203125 46.828125 11.5 52.921875 
C 13.40625 61.390625 19 64 22.90625 64 
C 27 64 32.296875 61.296875 34.203125 53.125 
C 35.5 47.4375 35.59375 40.734375 35.59375 32.75 
C 35.59375 26.25 35.59375 18.265625 34.40625 12.375 
C 32.296875 1.484375 26.40625 -0.40625 22.90625 -0.40625 
" id="CMR17-48"/>
       <path d="M 65.90625 23 
C 67.59375 23 69.40625 23 69.40625 25 
C 69.40625 27 67.59375 27 65.90625 27 
L 11.796875 27 
C 10.09375 27 8.296875 27 8.296875 25 
C 8.296875 23 10.09375 23 11.796875 23 
z
" id="CMSY10-0"/>
       <path d="M 33.59375 64.40625 
C 33.59375 66.5 33.5 66.5 31.703125 66.5 
L 2 19.59375 
L 2 17 
L 27.796875 17 
L 27.796875 7.140625 
C 27.796875 3.5 27.59375 2.5 20.59375 2.5 
L 18.703125 2.5 
L 18.703125 0 
C 21.90625 0 27.296875 0 30.703125 0 
C 34.09375 0 39.5 0 42.703125 0 
L 42.703125 2.5 
L 40.796875 2.5 
C 33.796875 2.5 33.59375 3.5 33.59375 7.140625 
L 33.59375 17 
L 43.796875 17 
L 43.796875 19.59375 
L 33.59375 19.59375 
z
M 28.09375 57.859375 
L 28.09375 19.59375 
L 4 19.59375 
z
" id="CMR17-52"/>
      </defs>
      <g transform="translate(18.560014 116.029306)scale(0.1 -0.1)">
       <use transform="scale(0.996264)" xlink:href="#CMR17-49"/>
       <use transform="translate(45.690477 0)scale(0.996264)" xlink:href="#CMR17-48"/>
       <use transform="translate(91.380954 36.153639)scale(0.697382)" xlink:href="#CMSY10-0"/>
       <use transform="translate(145.621947 36.153639)scale(0.697382)" xlink:href="#CMR17-52"/>
      </g>
     </g>
    </g>
    <g id="ytick_2">
     <g id="line2d_11">
      <g>
       <use style="stroke:#000000;stroke-width:0.8;" x="45.720587" xlink:href="#mfcb314a09a" y="11.054332"/>
      </g>
     </g>
     <g id="text_2">
      <!-- $10^{-3}$ -->
      <defs>
       <path d="M 22.09375 33.703125 
C 31 33.703125 34.90625 25.96875 34.90625 17.03125 
C 34.90625 5 28.5 0.390625 22.703125 0.390625 
C 17.40625 0.390625 8.796875 3.03125 6.09375 10.828125 
C 6.59375 10.625 7.09375 10.625 7.59375 10.625 
C 10 10.625 11.796875 12.21875 11.796875 14.8125 
C 11.796875 17.703125 9.59375 19 7.59375 19 
C 5.90625 19 3.296875 18.203125 3.296875 14.46875 
C 3.296875 5.234375 12.296875 -2 22.90625 -2 
C 34 -2 42.5 6.71875 42.5 16.953125 
C 42.5 26.671875 34.5 33.703125 25 34.796875 
C 32.59375 36.375 39.90625 43.0625 39.90625 52.015625 
C 39.90625 59.6875 32 65.296875 23 65.296875 
C 13.90625 65.296875 5.90625 59.828125 5.90625 52.015625 
C 5.90625 48.59375 8.5 48 9.796875 48 
C 11.90625 48 13.703125 49.296875 13.703125 51.890625 
C 13.703125 54.46875 11.90625 55.765625 9.796875 55.765625 
C 9.40625 55.765625 8.90625 55.765625 8.5 55.578125 
C 11.40625 61.859375 19.296875 63 22.796875 63 
C 26.296875 63 32.90625 61.328125 32.90625 51.875 
C 32.90625 49.109375 32.5 44.1875 29.09375 39.84375 
C 26.09375 36 22.703125 36 19.40625 35.6875 
C 18.90625 35.6875 16.59375 35.453125 16.203125 35.453125 
C 15.5 35.359375 15.09375 35.265625 15.09375 34.5 
C 15.09375 33.796875 15.203125 33.703125 17.203125 33.703125 
z
" id="CMR17-51"/>
      </defs>
      <g transform="translate(18.560014 14.513581)scale(0.1 -0.1)">
       <use transform="scale(0.996264)" xlink:href="#CMR17-49"/>
       <use transform="translate(45.690477 0)scale(0.996264)" xlink:href="#CMR17-48"/>
       <use transform="translate(91.380954 36.153639)scale(0.697382)" xlink:href="#CMSY10-0"/>
       <use transform="translate(145.621947 36.153639)scale(0.697382)" xlink:href="#CMR17-51"/>
      </g>
     </g>
    </g>
    <g id="ytick_3">
     <g id="line2d_12">
      <defs>
       <path d="M 0 0 
L -2 0 
" id="m8852100add" style="stroke:#000000;stroke-width:0.6;"/>
      </defs>
      <g>
       <use style="stroke:#000000;stroke-width:0.6;" x="45.720587" xlink:href="#m8852100add" y="183.526503"/>
      </g>
     </g>
    </g>
    <g id="ytick_4">
     <g id="line2d_13">
      <g>
       <use style="stroke:#000000;stroke-width:0.6;" x="45.720587" xlink:href="#m8852100add" y="165.650471"/>
      </g>
     </g>
    </g>
    <g id="ytick_5">
     <g id="line2d_14">
      <g>
       <use style="stroke:#000000;stroke-width:0.6;" x="45.720587" xlink:href="#m8852100add" y="152.967225"/>
      </g>
     </g>
    </g>
    <g id="ytick_6">
     <g id="line2d_15">
      <g>
       <use style="stroke:#000000;stroke-width:0.6;" x="45.720587" xlink:href="#m8852100add" y="143.129335"/>
      </g>
     </g>
    </g>
    <g id="ytick_7">
     <g id="line2d_16">
      <g>
       <use style="stroke:#000000;stroke-width:0.6;" x="45.720587" xlink:href="#m8852100add" y="135.091193"/>
      </g>
     </g>
    </g>
    <g id="ytick_8">
     <g id="line2d_17">
      <g>
       <use style="stroke:#000000;stroke-width:0.6;" x="45.720587" xlink:href="#m8852100add" y="128.295041"/>
      </g>
     </g>
    </g>
    <g id="ytick_9">
     <g id="line2d_18">
      <g>
       <use style="stroke:#000000;stroke-width:0.6;" x="45.720587" xlink:href="#m8852100add" y="122.407947"/>
      </g>
     </g>
    </g>
    <g id="ytick_10">
     <g id="line2d_19">
      <g>
       <use style="stroke:#000000;stroke-width:0.6;" x="45.720587" xlink:href="#m8852100add" y="117.215161"/>
      </g>
     </g>
    </g>
    <g id="ytick_11">
     <g id="line2d_20">
      <g>
       <use style="stroke:#000000;stroke-width:0.6;" x="45.720587" xlink:href="#m8852100add" y="82.010778"/>
      </g>
     </g>
    </g>
    <g id="ytick_12">
     <g id="line2d_21">
      <g>
       <use style="stroke:#000000;stroke-width:0.6;" x="45.720587" xlink:href="#m8852100add" y="64.134747"/>
      </g>
     </g>
    </g>
    <g id="ytick_13">
     <g id="line2d_22">
      <g>
       <use style="stroke:#000000;stroke-width:0.6;" x="45.720587" xlink:href="#m8852100add" y="51.4515"/>
      </g>
     </g>
    </g>
    <g id="ytick_14">
     <g id="line2d_23">
      <g>
       <use style="stroke:#000000;stroke-width:0.6;" x="45.720587" xlink:href="#m8852100add" y="41.61361"/>
      </g>
     </g>
    </g>
    <g id="ytick_15">
     <g id="line2d_24">
      <g>
       <use style="stroke:#000000;stroke-width:0.6;" x="45.720587" xlink:href="#m8852100add" y="33.575469"/>
      </g>
     </g>
    </g>
    <g id="ytick_16">
     <g id="line2d_25">
      <g>
       <use style="stroke:#000000;stroke-width:0.6;" x="45.720587" xlink:href="#m8852100add" y="26.779317"/>
      </g>
     </g>
    </g>
    <g id="ytick_17">
     <g id="line2d_26">
      <g>
       <use style="stroke:#000000;stroke-width:0.6;" x="45.720587" xlink:href="#m8852100add" y="20.892222"/>
      </g>
     </g>
    </g>
    <g id="ytick_18">
     <g id="line2d_27">
      <g>
       <use style="stroke:#000000;stroke-width:0.6;" x="45.720587" xlink:href="#m8852100add" y="15.699437"/>
      </g>
     </g>
    </g>
    <g id="text_3">
     <!-- $\mathrm{d} \sigma/\mathrm{d} p_{\text{T},\mathrm{j}_1} [\si{\femto\barn\per\giga\electronvolt}]$ -->
     <defs>
      <path d="M 29.203125 67.59375 
L 29.203125 65 
C 35.09375 65 36 64.40625 36 59.6875 
L 36 36.640625 
C 35.59375 37.140625 31.5 43.59375 23.40625 43.59375 
C 13.203125 43.59375 3.296875 34.5 3.296875 21.3125 
C 3.296875 8.203125 12.59375 -1 22.40625 -1 
C 30.90625 -1 35.296875 5.265625 35.796875 5.9375 
L 35.796875 -0.984375 
L 47.90625 -0.984375 
L 47.90625 2 
C 42 2 41.09375 2.59375 41.09375 7.390625 
L 41.09375 68.6875 
z
M 35.796875 11.796875 
C 35.796875 8.796875 34 6.09375 31.703125 4.09375 
C 28.296875 1.09375 24.90625 0.59375 23 0.59375 
C 20.09375 0.59375 9.703125 2.09375 9.703125 21.1875 
C 9.703125 40.8125 21.296875 42 23.90625 42 
C 28.5 42 32.203125 39.40625 34.5 35.796875 
C 35.796875 33.703125 35.796875 33.40625 35.796875 31.609375 
z
" id="CMR17-100"/>
      <path d="M 50.796875 37.625 
C 52.09375 37.625 55.40625 37.625 55.40625 40.8125 
C 55.40625 43 53.5 43 51.703125 43 
L 29.59375 43 
C 14.59375 43 3.796875 26.34375 3.796875 14.5625 
C 3.796875 6.09375 9.296875 -1 18.296875 -1 
C 30.09375 -1 43 11.671875 43 26.640625 
C 43 30.53125 42.09375 34.3125 39.703125 37.625 
z
M 18.40625 1 
C 13.296875 1 9.59375 4.890625 9.59375 11.78125 
C 9.59375 17.765625 13.203125 37.625 27.90625 37.625 
C 32.203125 37.625 37 35.53125 37 27.828125 
C 37 24.34375 35.40625 15.953125 31.90625 10.1875 
C 28.296875 4.296875 22.90625 1 18.40625 1 
" id="CMMI12-27"/>
      <path d="M 42.90625 71.28125 
C 42.90625 71.390625 43.5 72.90625 43.5 73.09375 
C 43.5 74.296875 42.5 75 41.703125 75 
C 41.203125 75 40.296875 75 39.5 72.796875 
L 6 -21.296875 
C 6 -21.40625 5.40625 -22.890625 5.40625 -23.09375 
C 5.40625 -24.296875 6.40625 -25 7.203125 -25 
C 7.796875 -25 8.703125 -24.890625 9.40625 -22.796875 
z
" id="CMMI12-61"/>
      <path d="M 4.296875 -12.328125 
C 3.59375 -15.3125 3.203125 -16.109375 -0.90625 -16.109375 
C -2.09375 -16.109375 -3.09375 -16.109375 -3.09375 -18 
C -3.09375 -18.203125 -3 -19 -1.90625 -19 
C -0.59375 -19 0.796875 -19 2.09375 -19 
L 6.40625 -19 
C 8.5 -19 13.59375 -19 15.703125 -19 
C 16.296875 -19 17.5 -19 17.5 -17.203125 
C 17.5 -16.109375 16.796875 -16.109375 15.09375 -16.109375 
C 10.5 -16.109375 10.203125 -15.421875 10.203125 -14.640625 
C 10.203125 -13.453125 14.703125 3.421875 15.296875 5.6875 
C 16.40625 2.890625 19.09375 -1 24.296875 -1 
C 35.59375 -1 47.796875 13.671875 47.796875 28.34375 
C 47.796875 37.515625 42.59375 44 35.09375 44 
C 28.703125 44 23.296875 37.8125 22.203125 36.421875 
C 21.40625 41.40625 17.5 44 13.5 44 
C 10.59375 44 8.296875 42.609375 6.40625 38.8125 
C 4.59375 35.21875 3.203125 29.140625 3.203125 28.734375 
C 3.203125 28.34375 3.59375 27.84375 4.296875 27.84375 
C 5.09375 27.84375 5.203125 27.9375 5.796875 30.234375 
C 7.296875 36.125 9.203125 42.015625 13.203125 42.015625 
C 15.5 42.015625 16.296875 40.421875 16.296875 37.453125 
C 16.296875 35.078125 16 34.078125 15.59375 32.296875 
z
M 21.59375 31.140625 
C 22.296875 33.921875 25.09375 36.828125 26.703125 38.21875 
C 27.796875 39.21875 31.09375 42.015625 34.90625 42.015625 
C 39.296875 42.015625 41.296875 37.625 41.296875 32.4375 
C 41.296875 27.640625 38.5 16.359375 36 11.171875 
C 33.5 5.78125 28.90625 1 24.296875 1 
C 17.5 1 16.40625 9.578125 16.40625 9.984375 
C 16.40625 10.28125 16.59375 11.078125 16.703125 11.578125 
z
" id="CMMI12-112"/>
      <path d="M 62.203125 67.59375 
L 4.5 67.59375 
L 2.796875 45.59375 
L 4.59375 45.59375 
C 5.90625 62.125 7.296875 65 22.703125 65 
C 24.5 65 27.40625 65 28.203125 64.90625 
C 30.09375 64.609375 30.09375 63.40625 30.09375 61.125 
L 30.09375 7.171875 
C 30.09375 3.59375 29.796875 2.5 21.5 2.5 
L 18.703125 2.5 
L 18.703125 0 
C 23.5 0 28.5 0 33.40625 0 
C 38.296875 0 43.296875 0 48.09375 0 
L 48.09375 2.5 
L 45.296875 2.5 
C 37 2.5 36.703125 3.59375 36.703125 7.171875 
L 36.703125 61.125 
C 36.703125 63.3125 36.703125 64.515625 38.5 64.90625 
C 39.296875 65 42.203125 65 44 65 
C 59.296875 65 60.796875 62.125 62.09375 45.59375 
L 63.90625 45.59375 
z
" id="CMR17-84"/>
      <path d="M 19.5 -0.484375 
C 19.5 5.359375 17.59375 9.671875 13.5 9.671875 
C 10.296875 9.671875 8.703125 7.078125 8.703125 4.890625 
C 8.703125 2.6875 10.203125 0 13.59375 0 
C 14.90625 0 16 0.40625 16.90625 1.296875 
C 17.09375 1.5 17.203125 1.5 17.296875 1.5 
C 17.5 1.5 17.5 0.078125 17.5 -0.421875 
C 17.5 -3.75 16.90625 -10.296875 11.09375 -16.875 
C 10 -18.078125 10 -18.28125 10 -18.484375 
C 10 -19 10.5 -19.5 11 -19.5 
C 11.796875 -19.5 19.5 -12.046875 19.5 -0.484375 
" id="CMMI12-59"/>
      <path d="M 18.203125 61.921875 
C 18.203125 64.109375 16.40625 66 14.09375 66 
C 11.90625 66 10 64.21875 10 61.921875 
C 10 59.734375 11.796875 57.84375 14.09375 57.84375 
C 16.296875 57.84375 18.203125 59.640625 18.203125 61.921875 
M 5.703125 43.03125 
L 5.703125 40.4375 
C 12.296875 40.4375 13.09375 39.734375 13.09375 34.921875 
L 13.09375 -5.609375 
C 13.09375 -10.59375 12.203125 -18.40625 6.296875 -18.40625 
C 5.59375 -18.40625 2.90625 -18.40625 0.703125 -16.90625 
C 1.40625 -16.796875 3.90625 -16.109375 3.90625 -13.296875 
C 3.90625 -11.390625 2.59375 -9.703125 0.296875 -9.703125 
C -1.90625 -9.703125 -3.296875 -11.203125 -3.296875 -13.40625 
C -3.296875 -17.40625 1.09375 -20 6.203125 -20 
C 13.09375 -20 18.203125 -13.703125 18.203125 -5.1875 
L 18.203125 44.140625 
z
" id="CMR17-106"/>
      <path d="M 23.5 -25 
L 23.5 -21.515625 
L 14.09375 -21.515625 
L 14.09375 71 
L 23.5 71 
L 23.5 74.484375 
L 10.59375 74.484375 
L 10.59375 -25 
z
" id="CMR17-91"/>
      <path d="M 15.296875 40 
L 26.703125 40 
L 26.703125 42.578125 
L 15.09375 42.578125 
L 15.09375 54.59375 
C 15.09375 62.84375 19.296875 68 23.59375 68 
C 24.90625 68 26.40625 67.609375 27.40625 66.90625 
C 26.59375 66.703125 24.5 66.015625 24.5 63.546875 
C 24.5 60.953125 26.5 60.15625 27.90625 60.15625 
C 29.296875 60.15625 31.296875 60.953125 31.296875 63.546875 
C 31.296875 67.3125 27.703125 69.59375 23.703125 69.59375 
C 18 69.59375 10.203125 64.9375 10.203125 54.390625 
L 10.203125 42.578125 
L 2.203125 42.578125 
L 2.203125 40 
L 10.203125 40 
L 10.203125 6.671875 
C 10.203125 2.875 9.796875 2.390625 3.40625 2.390625 
L 3.40625 -0.203125 
C 5.796875 0 10.40625 0 13 0 
C 15.90625 0 21 0 23.703125 -0.203125 
L 23.703125 2.390625 
C 16.5 2.390625 15.296875 2.390625 15.296875 6.859375 
z
" id="CMR17-102"/>
      <path d="M 15 68.6875 
L 3.09375 67.59375 
L 3.09375 65 
C 9 65 9.90625 64.40625 9.90625 59.640625 
L 9.90625 -0.203125 
L 11.703125 -0.203125 
L 14.59375 6.890625 
C 17.5 2.203125 21.796875 -1 27.59375 -1 
C 37.59375 -1 47.703125 7.8125 47.703125 21.40625 
C 47.703125 34.1875 38.703125 43.59375 28.59375 43.59375 
C 22.40625 43.59375 18 40.296875 15 36.40625 
z
M 15.203125 31.3125 
C 15.203125 33.09375 15.203125 33.40625 16.59375 35.5 
C 20.5 41.515625 26.09375 42 28 42 
C 31 42 41.296875 40.390625 41.296875 21.5 
C 41.296875 1.6875 29.5 0.59375 27.09375 0.59375 
C 24 0.59375 19.5 1.78125 16.296875 7.59375 
C 15.203125 9.5 15.203125 9.703125 15.203125 11.484375 
z
" id="CMR17-98"/>
      <path d="M 62.09375 19.265625 
C 62.09375 23.015625 62.40625 23.515625 68.59375 23.515625 
L 68.59375 26.09375 
C 66.203125 26 60.796875 26 58.09375 26 
C 55.296875 26 47.5 26 43.703125 26 
L 43.703125 23.515625 
L 46.703125 23.515625 
C 55.296875 23.515625 55.5 22.40625 55.5 18.765625 
L 55.5 12.09375 
C 55.5 0.984375 42.5 0.984375 39.40625 0.984375 
C 29.09375 0.984375 12.203125 7.984375 12.203125 33.75 
C 12.203125 59.5 28.796875 66.40625 38.5 66.40625 
C 49.796875 66.40625 58 56.65625 59.90625 42.828125 
C 60.09375 41.625 60.09375 41.421875 61 41.421875 
C 62.09375 41.421875 62.09375 41.625 62.09375 43.421875 
L 62.09375 67 
C 62.09375 68.78125 62 68.890625 61.40625 68.890625 
C 61 68.890625 60.90625 68.78125 60.203125 67.59375 
L 55.796875 59.234375 
C 50.90625 65.421875 44.90625 69 37.203125 69 
C 20.09375 69 4.59375 54 4.59375 33.5625 
C 4.59375 13.203125 19.796875 -2 37.40625 -2 
C 45.5 -2 53.40625 0.875 56.5 6.515625 
C 58.203125 2.46875 61 -0.3125 61.5 -0.3125 
C 62 -0.3125 62.09375 -0.203125 62.09375 1.5625 
z
" id="CMR17-71"/>
      <path d="M 38.09375 23 
C 38.5 23.40625 38.5 23.609375 38.5 24.625 
C 38.5 34.96875 33.09375 44 21.703125 44 
C 11.09375 44 2.703125 33.890625 2.703125 21.609375 
C 2.703125 8.609375 12.203125 -1 22.796875 -1 
C 34 -1 38.40625 9.484375 38.40625 11.5625 
C 38.40625 12.25 37.796875 12.25 37.59375 12.25 
C 36.90625 12.25 36.796875 12.046875 36.40625 10.875 
C 34.203125 4.140625 28.703125 0.796875 23.5 0.796875 
C 19.203125 0.796875 14.90625 3.171875 12.203125 7.5 
C 9.09375 12.546875 9.09375 18.375 9.09375 23 
z
M 9.203125 24.5 
C 9.90625 39.140625 17.59375 42.40625 21.59375 42.40625 
C 28.40625 42.40625 33 35.890625 33.09375 24.5 
z
" id="CMR17-101"/>
      <path d="M 59 58.515625 
C 59.90625 60.71875 61.5 65 68.203125 65 
L 68.203125 67.6875 
C 65.90625 67.484375 63.296875 67.484375 60.796875 67.484375 
C 58.40625 67.484375 54.296875 67.484375 52 67.6875 
L 52 65 
C 57 65 57.203125 61.5 57.203125 60.90625 
C 57.203125 59.796875 56.90625 59.109375 56.59375 58.3125 
L 36.90625 6.96875 
L 16.296875 60.71875 
C 16 61.421875 15.796875 61.921875 15.796875 62.40625 
C 15.796875 65 19.796875 65 21.90625 65 
L 21.90625 67.484375 
C 18.703125 67.484375 14 67.484375 10.703125 67.484375 
C 8.09375 67.484375 3.40625 67.484375 1 67.6875 
L 1 65 
C 6.796875 65 7.90625 64.609375 9.09375 61.421875 
L 32.90625 -0.40625 
C 33.40625 -1.796875 33.5 -2 34.59375 -2 
C 35.703125 -2 35.796875 -1.796875 36.296875 -0.40625 
z
" id="CMR17-86"/>
      <path d="M 14.296875 74.484375 
L 1.40625 74.484375 
L 1.40625 71 
L 10.796875 71 
L 10.796875 -21.515625 
L 1.40625 -21.515625 
L 1.40625 -25 
L 14.296875 -25 
z
" id="CMR17-93"/>
     </defs>
     <g transform="translate(12.622836 148.632764)rotate(-90)scale(0.1 -0.1)">
      <use transform="translate(0 25.404611)scale(0.996264)" xlink:href="#CMR17-100"/>
      <use transform="translate(50.89537 25.404611)scale(0.996264)" xlink:href="#CMMI12-27"/>
      <use transform="translate(109.915423 25.404611)scale(0.996264)" xlink:href="#CMMI12-61"/>
      <use transform="translate(158.690342 25.404611)scale(0.996264)" xlink:href="#CMR17-100"/>
      <use transform="translate(209.585712 25.404611)scale(0.996264)" xlink:href="#CMMI12-112"/>
      <use transform="translate(258.545226 10.460696)scale(0.697382)" xlink:href="#CMR17-84"/>
      <use transform="translate(305.101931 10.460696)scale(0.697382)" xlink:href="#CMMI12-59"/>
      <use transform="translate(324.069864 10.460696)scale(0.697382)" xlink:href="#CMR17-106"/>
      <use transform="translate(343.301228 0)scale(0.498132)" xlink:href="#CMR17-49"/>
      <use transform="translate(367.142731 25.404611)scale(0.996264)" xlink:href="#CMR17-91"/>
      <use transform="translate(392.013789 25.404611)scale(0.996264)" xlink:href="#CMR17-102"/>
      <use transform="translate(419.487302 25.404611)scale(0.996264)" xlink:href="#CMR17-98"/>
      <use transform="translate(486.987077 25.404611)scale(0.996264)" xlink:href="#CMR17-71"/>
      <use transform="translate(559.342423 25.404611)scale(0.996264)" xlink:href="#CMR17-101"/>
      <use transform="translate(599.828083 25.404611)scale(0.996264)" xlink:href="#CMR17-86"/>
      <use transform="translate(670.201679 61.55825)scale(0.697382)" xlink:href="#CMSY10-0"/>
      <use transform="translate(724.442672 61.55825)scale(0.697382)" xlink:href="#CMR17-49"/>
      <use transform="translate(756.923986 25.404611)scale(0.996264)" xlink:href="#CMR17-93"/>
     </g>
    </g>
   </g>
   <g id="line2d_28">
    <path clip-path="url(#p8858f37f0d)" d="M 70.27779 307.990052 
L 70.27779 132.583494 
L 78.602266 132.583494 
L 78.602266 70.522419 
L 86.926741 70.522419 
L 86.926741 42.836599 
L 95.251217 42.836599 
L 95.251217 28.815184 
L 103.575692 28.815184 
L 103.575692 22.010491 
L 111.900168 22.010491 
L 111.900168 19.41822 
L 120.224643 19.41822 
L 120.224643 19.469454 
L 128.549119 19.469454 
L 128.549119 21.248512 
L 136.873594 21.248512 
L 136.873594 24.155995 
L 145.19807 24.155995 
L 145.19807 27.840491 
L 153.522545 27.840491 
L 153.522545 32.033577 
L 161.847021 32.033577 
L 161.847021 36.55633 
L 170.171496 36.55633 
L 170.171496 41.300287 
L 178.495972 41.300287 
L 178.495972 46.339132 
L 186.820447 46.339132 
L 186.820447 51.509891 
L 195.144923 51.509891 
L 195.144923 56.811605 
L 203.469398 56.811605 
L 203.469398 62.204106 
L 211.793874 62.204106 
L 211.793874 67.628248 
L 220.118349 67.628248 
L 220.118349 73.089021 
L 228.442825 73.089021 
L 228.442825 78.553014 
L 236.767301 78.553014 
L 236.767301 83.996349 
L 245.091776 83.996349 
L 245.091776 89.412871 
L 253.416252 89.412871 
L 253.416252 94.781128 
L 261.740727 94.781128 
L 261.740727 100.14335 
L 270.065203 100.14335 
L 270.065203 105.46077 
L 278.389678 105.46077 
L 278.389678 110.734876 
L 286.714154 110.734876 
L 286.714154 116.047683 
L 295.038629 116.047683 
L 295.038629 121.269882 
L 303.363105 121.269882 
L 303.363105 126.385119 
L 311.68758 126.385119 
L 311.68758 131.535543 
L 320.012056 131.535543 
L 320.012056 136.697783 
L 328.336531 136.697783 
L 328.336531 141.843469 
L 336.661007 141.843469 
L 336.661007 146.886736 
L 344.985482 146.886736 
L 344.985482 151.906248 
L 353.309958 151.906248 
L 353.309958 156.886409 
L 361.634433 156.886409 
L 361.634433 161.87221 
L 369.958909 161.87221 
L 369.958909 166.831418 
L 378.283384 166.831418 
L 378.283384 171.662481 
L 386.60786 171.662481 
" style="fill:none;stroke:#0000ff;stroke-linecap:square;"/>
   </g>
   <g id="line2d_29">
    <path clip-path="url(#p8858f37f0d)" d="M 70.27779 307.990052 
L 70.27779 136.304311 
L 78.602266 136.304311 
L 78.602266 75.227328 
L 86.926741 75.227328 
L 86.926741 48.365598 
L 95.251217 48.365598 
L 95.251217 34.828734 
L 103.575692 34.828734 
L 103.575692 28.296507 
L 111.900168 28.296507 
L 111.900168 25.956788 
L 120.224643 25.956788 
L 120.224643 26.829194 
L 128.549119 26.829194 
L 128.549119 28.972315 
L 136.873594 28.972315 
L 136.873594 32.05519 
L 145.19807 32.05519 
L 145.19807 36.151447 
L 153.522545 36.151447 
L 153.522545 40.440263 
L 161.847021 40.440263 
L 161.847021 45.561492 
L 170.171496 45.561492 
L 170.171496 50.790759 
L 178.495972 50.790759 
L 178.495972 56.060667 
L 186.820447 56.060667 
L 186.820447 61.595256 
L 195.144923 61.595256 
L 195.144923 67.154167 
L 203.469398 67.154167 
L 203.469398 73.358375 
L 211.793874 73.358375 
L 211.793874 78.933132 
L 220.118349 78.933132 
L 220.118349 84.212974 
L 228.442825 84.212974 
L 228.442825 90.510164 
L 236.767301 90.510164 
L 236.767301 95.777792 
L 245.091776 95.777792 
L 245.091776 101.848587 
L 253.416252 101.848587 
L 253.416252 107.352056 
L 261.740727 107.352056 
L 261.740727 112.995872 
L 270.065203 112.995872 
L 270.065203 118.597221 
L 278.389678 118.597221 
L 278.389678 124.125185 
L 286.714154 124.125185 
L 286.714154 130.039961 
L 295.038629 130.039961 
L 295.038629 135.556681 
L 303.363105 135.556681 
L 303.363105 140.696897 
L 311.68758 140.696897 
L 311.68758 145.420448 
L 320.012056 145.420448 
L 320.012056 151.60365 
L 328.336531 151.60365 
L 328.336531 156.836754 
L 336.661007 156.836754 
L 336.661007 161.868219 
L 344.985482 161.868219 
L 344.985482 167.251064 
L 353.309958 167.251064 
L 353.309958 172.601126 
L 361.634433 172.601126 
L 361.634433 177.535826 
L 369.958909 177.535826 
L 369.958909 182.781495 
L 378.283384 182.781495 
L 378.283384 187.697856 
L 386.60786 187.697856 
" style="fill:none;stroke:#ff0000;stroke-linecap:square;"/>
   </g>
   <g id="patch_3">
    <path d="M 45.720587 201.816098 
L 45.720587 7.1 
" style="fill:none;stroke:#000000;stroke-linecap:square;stroke-linejoin:miter;stroke-width:0.8;"/>
   </g>
   <g id="patch_4">
    <path d="M 402.840587 201.816098 
L 402.840587 7.1 
" style="fill:none;stroke:#000000;stroke-linecap:square;stroke-linejoin:miter;stroke-width:0.8;"/>
   </g>
   <g id="patch_5">
    <path d="M 45.720587 201.816098 
L 402.840587 201.816098 
" style="fill:none;stroke:#000000;stroke-linecap:square;stroke-linejoin:miter;stroke-width:0.8;"/>
   </g>
   <g id="patch_6">
    <path d="M 45.720587 7.1 
L 402.840587 7.1 
" style="fill:none;stroke:#000000;stroke-linecap:square;stroke-linejoin:miter;stroke-width:0.8;"/>
   </g>
   <g id="legend_1">
    <g id="patch_7">
     <path d="M 342.393183 42.974357 
L 395.840587 42.974357 
Q 397.840587 42.974357 397.840587 40.974357 
L 397.840587 14.1 
Q 397.840587 12.1 395.840587 12.1 
L 342.393183 12.1 
Q 340.393183 12.1 340.393183 14.1 
L 340.393183 40.974357 
Q 340.393183 42.974357 342.393183 42.974357 
z
" style="fill:#ffffff;opacity:0.8;stroke:#cccccc;stroke-linejoin:miter;"/>
    </g>
    <g id="line2d_30">
     <path d="M 344.393183 19.6 
L 364.393183 19.6 
" style="fill:none;stroke:#0000ff;stroke-linecap:square;"/>
    </g>
    <g id="line2d_31"/>
    <g id="text_4">
     <!-- LO -->
     <defs>
      <path d="M 54.203125 25.234375 
L 52.40625 25.234375 
C 51.59375 15.359375 50.296875 2.59375 33.203125 2.59375 
L 23.90625 2.59375 
C 19.90625 2.59375 19.703125 3.078125 19.703125 6.46875 
L 19.703125 60.90625 
C 19.703125 64.515625 19.90625 65.5 27.5 65.5 
L 29.703125 65.5 
L 29.703125 68 
C 25.59375 68 20.796875 68 16.703125 68 
C 13.59375 68 8 68 5.09375 68 
L 5.09375 65.5 
C 12 65.5 13.09375 65.5 13.09375 61.015625 
L 13.09375 7.0625 
C 13.09375 2.59375 12 2.59375 5.09375 2.59375 
L 5.09375 0 
L 51.796875 0 
z
" id="CMR17-76"/>
      <path d="M 67.296875 33.359375 
C 67.296875 53.703125 52.59375 69 36 69 
C 19 69 4.59375 53.5 4.59375 33.359375 
C 4.59375 13.203125 19.203125 -2 35.90625 -2 
C 53 -2 67.296875 13.5 67.296875 33.359375 
M 36 -0.203125 
C 24.59375 -0.203125 12.203125 11.109375 12.203125 34.640625 
C 12.203125 58.0625 25.796875 67.203125 35.90625 67.203125 
C 46.5 67.203125 59.703125 57.78125 59.703125 34.640625 
C 59.703125 10.71875 47 -0.203125 36 -0.203125 
" id="CMR17-79"/>
     </defs>
     <g transform="translate(372.393183 23.1)scale(0.1 -0.1)">
      <use transform="scale(0.996264)" xlink:href="#CMR17-76"/>
      <use transform="translate(57.381408 0)scale(0.996264)" xlink:href="#CMR17-79"/>
     </g>
    </g>
    <g id="line2d_32">
     <path d="M 344.393183 33.537178 
L 364.393183 33.537178 
" style="fill:none;stroke:#ff0000;stroke-linecap:square;"/>
    </g>
    <g id="line2d_33"/>
    <g id="text_5">
     <!-- NLO -->
     <defs>
      <path d="M 20.5 66.40625 
C 19.796875 67.5 19.703125 67.5 17.796875 67.5 
L 5.09375 67.5 
L 5.09375 65 
L 7 65 
C 11 65 12.796875 64.515625 13.09375 64.40625 
L 13.09375 9.53125 
C 13.09375 7.046875 13.09375 2.390625 5.09375 2.390625 
L 5.09375 -0.203125 
C 7.40625 0 11.59375 0 14.09375 0 
C 16.59375 0 20.796875 0 23.09375 -0.203125 
L 23.09375 2.390625 
C 15.09375 2.390625 15.09375 7.046875 15.09375 9.53125 
L 15.09375 63.015625 
C 15.796875 62.421875 15.796875 62.21875 16.5 61.234375 
L 53.59375 1.1875 
C 54.296875 0 54.59375 0 55.09375 0 
C 56.09375 0 56.09375 0.296875 56.09375 2.171875 
L 56.09375 57.890625 
C 56.09375 60.359375 56.09375 65 64.09375 65 
L 64.09375 67.59375 
C 61.796875 67.5 57.59375 67.5 55.09375 67.5 
C 52.59375 67.5 48.40625 67.5 46.09375 67.59375 
L 46.09375 65 
C 54.09375 65 54.09375 60.34375 54.09375 57.859375 
L 54.09375 11.921875 
z
" id="CMR17-78"/>
     </defs>
     <g transform="translate(372.393183 37.037178)scale(0.1 -0.1)">
      <use transform="scale(0.996264)" xlink:href="#CMR17-78"/>
      <use transform="translate(69.07243 0)scale(0.996264)" xlink:href="#CMR17-76"/>
      <use transform="translate(126.453838 0)scale(0.996264)" xlink:href="#CMR17-79"/>
     </g>
    </g>
   </g>
  </g>
  <g id="axes_2">
   <g id="patch_8">
    <path d="M 45.720587 273.212 
L 402.840587 273.212 
L 402.840587 208.306634 
L 45.720587 208.306634 
z
" style="fill:#ffffff;"/>
   </g>
   <g id="PolyCollection_3">
    <defs>
     <path d="M 61.953314 -80.348411 
L 61.953314 -80.348411 
L 61.953314 -80.348411 
L 70.27779 -80.348411 
L 70.27779 -74.591646 
L 78.602266 -74.591646 
L 78.602266 -74.02118 
L 86.926741 -74.02118 
L 86.926741 -73.630866 
L 95.251217 -73.630866 
L 95.251217 -73.372631 
L 103.575692 -73.372631 
L 103.575692 -73.170245 
L 111.900168 -73.170245 
L 111.900168 -72.989418 
L 120.224643 -72.989418 
L 120.224643 -72.814479 
L 128.549119 -72.814479 
L 128.549119 -72.644698 
L 136.873594 -72.644698 
L 136.873594 -72.479032 
L 145.19807 -72.479032 
L 145.19807 -72.316459 
L 153.522545 -72.316459 
L 153.522545 -72.161955 
L 161.847021 -72.161955 
L 161.847021 -72.014839 
L 170.171496 -72.014839 
L 170.171496 -71.866452 
L 178.495972 -71.866452 
L 178.495972 -71.712144 
L 186.820447 -71.712144 
L 186.820447 -71.550852 
L 195.144923 -71.550852 
L 195.144923 -71.384545 
L 203.469398 -71.384545 
L 203.469398 -71.217375 
L 211.793874 -71.217375 
L 211.793874 -71.051171 
L 220.118349 -71.051171 
L 220.118349 -70.880691 
L 228.442825 -70.880691 
L 228.442825 -70.714192 
L 236.767301 -70.714192 
L 236.767301 -70.546812 
L 245.091776 -70.546812 
L 245.091776 -70.385226 
L 253.416252 -70.385226 
L 253.416252 -70.221857 
L 261.740727 -70.221857 
L 261.740727 -70.063514 
L 270.065203 -70.063514 
L 270.065203 -69.90864 
L 278.389678 -69.90864 
L 278.389678 -69.753505 
L 286.714154 -69.753505 
L 286.714154 -69.599674 
L 295.038629 -69.599674 
L 295.038629 -69.450123 
L 303.363105 -69.450123 
L 303.363105 -69.304402 
L 311.68758 -69.304402 
L 311.68758 -69.156155 
L 320.012056 -69.156155 
L 320.012056 -69.01092 
L 328.336531 -69.01092 
L 328.336531 -68.869803 
L 336.661007 -68.869803 
L 336.661007 -68.728058 
L 344.985482 -68.728058 
L 344.985482 -68.5892 
L 353.309958 -68.5892 
L 353.309958 -68.450167 
L 361.634433 -68.450167 
L 361.634433 -68.311789 
L 369.958909 -68.311789 
L 369.958909 -68.178916 
L 378.283384 -68.178916 
L 378.283384 -68.041352 
L 386.60786 -68.041352 
L 386.60786 -95.733174 
L 386.60786 -95.733174 
L 378.283384 -95.733174 
L 378.283384 -95.531846 
L 369.958909 -95.531846 
L 369.958909 -95.33775 
L 361.634433 -95.33775 
L 361.634433 -95.1363 
L 353.309958 -95.1363 
L 353.309958 -94.934346 
L 344.985482 -94.934346 
L 344.985482 -94.733214 
L 336.661007 -94.733214 
L 336.661007 -94.52845 
L 328.336531 -94.52845 
L 328.336531 -94.325085 
L 320.012056 -94.325085 
L 320.012056 -94.116429 
L 311.68758 -94.116429 
L 311.68758 -93.904085 
L 303.363105 -93.904085 
L 303.363105 -93.696227 
L 295.038629 -93.696227 
L 295.038629 -93.48289 
L 286.714154 -93.48289 
L 286.714154 -93.264746 
L 278.389678 -93.264746 
L 278.389678 -93.04514 
L 270.065203 -93.04514 
L 270.065203 -92.826694 
L 261.740727 -92.826694 
L 261.740727 -92.604024 
L 253.416252 -92.604024 
L 253.416252 -92.374802 
L 245.091776 -92.374802 
L 245.091776 -92.148967 
L 236.767301 -92.148967 
L 236.767301 -91.915553 
L 228.442825 -91.915553 
L 228.442825 -91.684149 
L 220.118349 -91.684149 
L 220.118349 -91.447884 
L 211.793874 -91.447884 
L 211.793874 -91.218315 
L 203.469398 -91.218315 
L 203.469398 -90.987492 
L 195.144923 -90.987492 
L 195.144923 -90.758778 
L 186.820447 -90.758778 
L 186.820447 -90.537026 
L 178.495972 -90.537026 
L 178.495972 -90.324994 
L 170.171496 -90.324994 
L 170.171496 -90.120909 
L 161.847021 -90.120909 
L 161.847021 -89.918781 
L 153.522545 -89.918781 
L 153.522545 -89.707174 
L 145.19807 -89.707174 
L 145.19807 -89.485151 
L 136.873594 -89.485151 
L 136.873594 -89.259277 
L 128.549119 -89.259277 
L 128.549119 -89.028325 
L 120.224643 -89.028325 
L 120.224643 -88.790554 
L 111.900168 -88.790554 
L 111.900168 -88.544651 
L 103.575692 -88.544651 
L 103.575692 -88.267929 
L 95.251217 -88.267929 
L 95.251217 -87.912755 
L 86.926741 -87.912755 
L 86.926741 -87.378741 
L 78.602266 -87.378741 
L 78.602266 -86.613781 
L 70.27779 -86.613781 
L 70.27779 -80.348411 
L 61.953314 -80.348411 
L 61.953314 -80.348411 
z
" id="m6a45c8a279"/>
    </defs>
    <g clip-path="url(#p9bd25df1a0)">
     <use style="fill:#0000ff;fill-opacity:0.4;" x="0" xlink:href="#m6a45c8a279" y="306.990052"/>
    </g>
   </g>
   <g id="PolyCollection_4">
    <defs>
     <path d="M 61.953314 -80.348411 
L 61.953314 -80.348411 
L 61.953314 -80.348411 
L 70.27779 -80.348411 
L 70.27779 -66.299291 
L 78.602266 -66.299291 
L 78.602266 -63.649516 
L 86.926741 -63.649516 
L 86.926741 -61.54561 
L 95.251217 -61.54561 
L 95.251217 -60.294636 
L 103.575692 -60.294636 
L 103.575692 -59.54407 
L 111.900168 -59.54407 
L 111.900168 -58.847959 
L 120.224643 -58.847959 
L 120.224643 -57.050431 
L 128.549119 -57.050431 
L 128.549119 -56.15537 
L 136.873594 -56.15537 
L 136.873594 -55.656457 
L 145.19807 -55.656457 
L 145.19807 -54.69719 
L 153.522545 -54.69719 
L 153.522545 -54.361359 
L 161.847021 -54.361359 
L 161.847021 -53.076594 
L 170.171496 -53.076594 
L 170.171496 -52.010938 
L 178.495972 -52.010938 
L 178.495972 -51.40538 
L 186.820447 -51.40538 
L 186.820447 -50.588178 
L 195.144923 -50.588178 
L 195.144923 -49.933238 
L 203.469398 -49.933238 
L 203.469398 -48.287277 
L 211.793874 -48.287277 
L 211.793874 -47.852964 
L 220.118349 -47.852964 
L 220.118349 -47.98666 
L 228.442825 -47.98666 
L 228.442825 -46.387629 
L 236.767301 -46.387629 
L 236.767301 -46.496516 
L 245.091776 -46.496516 
L 245.091776 -45.130969 
L 253.416252 -45.130969 
L 253.416252 -44.789129 
L 261.740727 -44.789129 
L 261.740727 -44.099859 
L 270.065203 -44.099859 
L 270.065203 -43.475887 
L 278.389678 -43.475887 
L 278.389678 -42.889712 
L 286.714154 -42.889712 
L 286.714154 -41.647291 
L 295.038629 -41.647291 
L 295.038629 -41.05927 
L 303.363105 -41.05927 
L 303.363105 -40.801344 
L 311.68758 -40.801344 
L 311.68758 -41.443731 
L 320.012056 -41.443731 
L 320.012056 -39.552437 
L 328.336531 -39.552437 
L 328.336531 -39.276005 
L 336.661007 -39.276005 
L 336.661007 -39.125475 
L 344.985482 -39.125475 
L 344.985482 -38.403545 
L 353.309958 -38.403545 
L 353.309958 -37.636093 
L 361.634433 -37.636093 
L 361.634433 -37.593303 
L 369.958909 -37.593303 
L 369.958909 -37.036226 
L 378.283384 -37.036226 
L 378.283384 -36.728296 
L 386.60786 -36.728296 
L 386.60786 -63.137279 
L 386.60786 -63.137279 
L 378.283384 -63.137279 
L 378.283384 -63.028658 
L 369.958909 -63.028658 
L 369.958909 -63.382019 
L 361.634433 -63.382019 
L 361.634433 -63.118451 
L 353.309958 -63.118451 
L 353.309958 -63.522514 
L 344.985482 -63.522514 
L 344.985482 -63.970724 
L 336.661007 -63.970724 
L 336.661007 -63.702369 
L 328.336531 -63.702369 
L 328.336531 -63.672891 
L 320.012056 -63.672891 
L 320.012056 -65.198219 
L 311.68758 -65.198219 
L 311.68758 -64.338482 
L 303.363105 -64.338482 
L 303.363105 -64.076946 
L 295.038629 -64.076946 
L 295.038629 -64.465653 
L 286.714154 -64.465653 
L 286.714154 -65.229729 
L 278.389678 -65.229729 
L 278.389678 -65.48397 
L 270.065203 -65.48397 
L 270.065203 -65.81398 
L 261.740727 -65.81398 
L 261.740727 -66.046381 
L 253.416252 -66.046381 
L 253.416252 -66.149709 
L 245.091776 -66.149709 
L 245.091776 -67.06236 
L 236.767301 -67.06236 
L 236.767301 -66.453895 
L 228.442825 -66.453895 
L 228.442825 -67.869686 
L 220.118349 -67.869686 
L 220.118349 -67.265913 
L 211.793874 -67.265913 
L 211.793874 -67.324506 
L 203.469398 -67.324506 
L 203.469398 -68.638164 
L 195.144923 -68.638164 
L 195.144923 -68.887902 
L 186.820447 -68.887902 
L 186.820447 -69.402642 
L 178.495972 -69.402642 
L 178.495972 -69.616112 
L 170.171496 -69.616112 
L 170.171496 -70.365844 
L 161.847021 -70.365844 
L 161.847021 -71.3656 
L 153.522545 -71.3656 
L 153.522545 -71.351491 
L 145.19807 -71.351491 
L 145.19807 -71.962273 
L 136.873594 -71.962273 
L 136.873594 -72.106008 
L 128.549119 -72.106008 
L 128.549119 -72.604496 
L 120.224643 -72.604496 
L 120.224643 -74.083685 
L 111.900168 -74.083685 
L 111.900168 -74.358991 
L 103.575692 -74.358991 
L 103.575692 -74.662471 
L 95.251217 -74.662471 
L 95.251217 -75.336593 
L 86.926741 -75.336593 
L 86.926741 -76.576551 
L 78.602266 -76.576551 
L 78.602266 -77.984472 
L 70.27779 -77.984472 
L 70.27779 -80.348411 
L 61.953314 -80.348411 
L 61.953314 -80.348411 
z
" id="m7fc0cddc87"/>
    </defs>
    <g clip-path="url(#p9bd25df1a0)">
     <use style="fill:#ff0000;fill-opacity:0.4;" x="0" xlink:href="#m7fc0cddc87" y="306.990052"/>
    </g>
   </g>
   <g id="matplotlib.axis_3">
    <g id="xtick_10">
     <g id="line2d_34">
      <g>
       <use style="stroke:#000000;stroke-width:0.8;" x="57.791077" xlink:href="#m866ae36826" y="273.212"/>
      </g>
     </g>
     <g id="text_6">
      <!-- $0$ -->
      <g transform="translate(55.300409 287.130498)scale(0.1 -0.1)">
       <use transform="scale(0.996264)" xlink:href="#CMR17-48"/>
      </g>
     </g>
    </g>
    <g id="xtick_11">
     <g id="line2d_35">
      <g>
       <use style="stroke:#000000;stroke-width:0.8;" x="99.413454" xlink:href="#m866ae36826" y="273.212"/>
      </g>
     </g>
     <g id="text_7">
      <!-- $100$ -->
      <g transform="translate(91.941451 287.130498)scale(0.1 -0.1)">
       <use transform="scale(0.996264)" xlink:href="#CMR17-49"/>
       <use transform="translate(45.690477 0)scale(0.996264)" xlink:href="#CMR17-48"/>
       <use transform="translate(91.380954 0)scale(0.996264)" xlink:href="#CMR17-48"/>
      </g>
     </g>
    </g>
    <g id="xtick_12">
     <g id="line2d_36">
      <g>
       <use style="stroke:#000000;stroke-width:0.8;" x="141.035832" xlink:href="#m866ae36826" y="273.212"/>
      </g>
     </g>
     <g id="text_8">
      <!-- $200$ -->
      <defs>
       <path d="M 41.703125 15.453125 
L 39.90625 15.453125 
C 38.90625 8.375 38.09375 7.171875 37.703125 6.5625 
C 37.203125 5.765625 30 5.765625 28.59375 5.765625 
L 9.40625 5.765625 
C 13 9.671875 20 16.75 28.5 24.953125 
C 34.59375 30.734375 41.703125 37.53125 41.703125 47.421875 
C 41.703125 59.21875 32.296875 66 21.796875 66 
C 10.796875 66 4.09375 56.3125 4.09375 47.34375 
C 4.09375 43.4375 7 42.9375 8.203125 42.9375 
C 9.203125 42.9375 12.203125 43.546875 12.203125 47.03125 
C 12.203125 50.109375 9.59375 51 8.203125 51 
C 7.59375 51 7 50.90625 6.59375 50.703125 
C 8.5 59.21875 14.296875 63.40625 20.40625 63.40625 
C 29.09375 63.40625 34.796875 56.515625 34.796875 47.421875 
C 34.796875 38.734375 29.703125 31.25 24 24.75 
L 4.09375 2.28125 
L 4.09375 0 
L 39.296875 0 
z
" id="CMR17-50"/>
      </defs>
      <g transform="translate(133.563829 287.130498)scale(0.1 -0.1)">
       <use transform="scale(0.996264)" xlink:href="#CMR17-50"/>
       <use transform="translate(45.690477 0)scale(0.996264)" xlink:href="#CMR17-48"/>
       <use transform="translate(91.380954 0)scale(0.996264)" xlink:href="#CMR17-48"/>
      </g>
     </g>
    </g>
    <g id="xtick_13">
     <g id="line2d_37">
      <g>
       <use style="stroke:#000000;stroke-width:0.8;" x="182.65821" xlink:href="#m866ae36826" y="273.212"/>
      </g>
     </g>
     <g id="text_9">
      <!-- $300$ -->
      <g transform="translate(175.186207 287.130498)scale(0.1 -0.1)">
       <use transform="scale(0.996264)" xlink:href="#CMR17-51"/>
       <use transform="translate(45.690477 0)scale(0.996264)" xlink:href="#CMR17-48"/>
       <use transform="translate(91.380954 0)scale(0.996264)" xlink:href="#CMR17-48"/>
      </g>
     </g>
    </g>
    <g id="xtick_14">
     <g id="line2d_38">
      <g>
       <use style="stroke:#000000;stroke-width:0.8;" x="224.280587" xlink:href="#m866ae36826" y="273.212"/>
      </g>
     </g>
     <g id="text_10">
      <!-- $400$ -->
      <g transform="translate(216.808584 287.130498)scale(0.1 -0.1)">
       <use transform="scale(0.996264)" xlink:href="#CMR17-52"/>
       <use transform="translate(45.690477 0)scale(0.996264)" xlink:href="#CMR17-48"/>
       <use transform="translate(91.380954 0)scale(0.996264)" xlink:href="#CMR17-48"/>
      </g>
     </g>
    </g>
    <g id="xtick_15">
     <g id="line2d_39">
      <g>
       <use style="stroke:#000000;stroke-width:0.8;" x="265.902965" xlink:href="#m866ae36826" y="273.212"/>
      </g>
     </g>
     <g id="text_11">
      <!-- $500$ -->
      <defs>
       <path d="M 11.40625 57.6875 
C 12.40625 57.28125 16.5 56 20.703125 56 
C 30 56 35.09375 61.109375 38 64.0625 
C 38 64.953125 38 65.5 37.40625 65.5 
C 37.296875 65.5 37.09375 65.5 36.296875 65.046875 
C 32.796875 63.40625 28.703125 62.078125 23.703125 62.078125 
C 20.703125 62.078125 16.203125 62.484375 11.296875 64.671875 
C 10.203125 65.171875 10 65.171875 9.90625 65.171875 
C 9.40625 65.171875 9.296875 65.0625 9.296875 63.078125 
L 9.296875 34.421875 
C 9.296875 32.640625 9.296875 32.140625 10.296875 32.140625 
C 10.796875 32.140625 11 32.34375 11.5 33.03125 
C 14.703125 37.515625 19.09375 39.40625 24.09375 39.40625 
C 27.59375 39.40625 35.09375 37.21875 35.09375 20.140625 
C 35.09375 16.953125 35.09375 11.171875 32.09375 6.578125 
C 29.59375 2.484375 25.703125 0.390625 21.40625 0.390625 
C 14.796875 0.390625 8.09375 5 6.296875 12.71875 
C 6.703125 12.609375 7.5 12.421875 7.90625 12.421875 
C 9.203125 12.421875 11.703125 13.125 11.703125 16.21875 
C 11.703125 18.90625 9.796875 20 7.90625 20 
C 5.59375 20 4.09375 18.59375 4.09375 15.796875 
C 4.09375 7.09375 11 -2 21.59375 -2 
C 31.90625 -2 41.703125 6.875 41.703125 19.75 
C 41.703125 31.71875 33.90625 41 24.203125 41 
C 19.09375 41 14.796875 39.109375 11.40625 35.53125 
z
" id="CMR17-53"/>
      </defs>
      <g transform="translate(258.430962 287.130498)scale(0.1 -0.1)">
       <use transform="scale(0.996264)" xlink:href="#CMR17-53"/>
       <use transform="translate(45.690477 0)scale(0.996264)" xlink:href="#CMR17-48"/>
       <use transform="translate(91.380954 0)scale(0.996264)" xlink:href="#CMR17-48"/>
      </g>
     </g>
    </g>
    <g id="xtick_16">
     <g id="line2d_40">
      <g>
       <use style="stroke:#000000;stroke-width:0.8;" x="307.525342" xlink:href="#m866ae36826" y="273.212"/>
      </g>
     </g>
     <g id="text_12">
      <!-- $600$ -->
      <defs>
       <path d="M 10.59375 34 
C 10.59375 57.65625 21.796875 63 28.296875 63 
C 30.40625 63 35.5 62.640625 37.5 59 
C 35.90625 59 32.90625 59 32.90625 55.515625 
C 32.90625 52.828125 35.09375 51.921875 36.5 51.921875 
C 37.40625 51.921875 40.09375 52.3125 40.09375 55.625 
C 40.09375 61.78125 35.09375 65.296875 28.203125 65.296875 
C 16.296875 65.296875 3.796875 52.96875 3.796875 31 
C 3.796875 3.953125 15.09375 -2 23.09375 -2 
C 32.796875 -2 42 6.671875 42 20.046875 
C 42 32.515625 33.90625 41.59375 23.703125 41.59375 
C 17.59375 41.59375 13.09375 37.609375 10.59375 30.625 
z
M 23.09375 0.390625 
C 10.796875 0.390625 10.796875 18.75 10.796875 22.4375 
C 10.796875 29.625 14.203125 40 23.5 40 
C 25.203125 40 30.09375 40 33.40625 33.125 
C 35.203125 29.21875 35.203125 25.140625 35.203125 20.140625 
C 35.203125 14.75 35.203125 10.78125 33.09375 6.78125 
C 30.90625 2.671875 27.703125 0.390625 23.09375 0.390625 
" id="CMR17-54"/>
      </defs>
      <g transform="translate(300.05334 287.130498)scale(0.1 -0.1)">
       <use transform="scale(0.996264)" xlink:href="#CMR17-54"/>
       <use transform="translate(45.690477 0)scale(0.996264)" xlink:href="#CMR17-48"/>
       <use transform="translate(91.380954 0)scale(0.996264)" xlink:href="#CMR17-48"/>
      </g>
     </g>
    </g>
    <g id="xtick_17">
     <g id="line2d_41">
      <g>
       <use style="stroke:#000000;stroke-width:0.8;" x="349.14772" xlink:href="#m866ae36826" y="273.212"/>
      </g>
     </g>
     <g id="text_13">
      <!-- $700$ -->
      <defs>
       <path d="M 45.09375 61.578125 
L 45.09375 63.765625 
L 21.59375 63.765625 
C 9.90625 63.765625 9.703125 65.078125 9.296875 67 
L 7.5 67 
L 4.59375 48.34375 
L 6.40625 48.34375 
C 6.703125 50.234375 7.40625 55.3125 8.59375 57.203125 
C 9.203125 58 16.59375 58 18.296875 58 
L 40.296875 58 
L 29.203125 41.578125 
C 21.796875 30.53125 16.703125 15.609375 16.703125 2.578125 
C 16.703125 1.390625 16.703125 -2 20.296875 -2 
C 23.90625 -2 23.90625 1.390625 23.90625 2.671875 
L 23.90625 7.265625 
C 23.90625 23.5625 26.703125 34.3125 31.296875 41.1875 
z
" id="CMR17-55"/>
      </defs>
      <g transform="translate(341.675717 287.130498)scale(0.1 -0.1)">
       <use transform="scale(0.996264)" xlink:href="#CMR17-55"/>
       <use transform="translate(45.690477 0)scale(0.996264)" xlink:href="#CMR17-48"/>
       <use transform="translate(91.380954 0)scale(0.996264)" xlink:href="#CMR17-48"/>
      </g>
     </g>
    </g>
    <g id="xtick_18">
     <g id="line2d_42">
      <g>
       <use style="stroke:#000000;stroke-width:0.8;" x="390.770098" xlink:href="#m866ae36826" y="273.212"/>
      </g>
     </g>
     <g id="text_14">
      <!-- $800$ -->
      <defs>
       <path d="M 27.203125 35.375 
C 33.5 38.546875 39.90625 43.328125 39.90625 50.984375 
C 39.90625 60.015625 31.09375 65.296875 23 65.296875 
C 13.90625 65.296875 5.90625 58.734375 5.90625 49.6875 
C 5.90625 47.203125 6.5 42.921875 10.40625 39.140625 
C 11.40625 38.15625 15.59375 35.171875 18.296875 33.28125 
C 13.796875 30.984375 3.296875 25.53125 3.296875 14.59375 
C 3.296875 4.359375 13.09375 -2 22.796875 -2 
C 33.5 -2 42.5 5.65625 42.5 15.78125 
C 42.5 24.84375 36.40625 29.015625 32.40625 31.703125 
z
M 14.09375 44.09375 
C 13.296875 44.59375 9.296875 47.671875 9.296875 52.359375 
C 9.296875 58.421875 15.59375 63 22.796875 63 
C 30.703125 63 36.5 57.4375 36.5 50.96875 
C 36.5 41.703125 26.09375 36.421875 25.59375 36.421875 
C 25.5 36.421875 25.40625 36.421875 24.59375 37.03125 
z
M 32.5 23.734375 
C 34 22.640625 38.796875 19.375 38.796875 13.296875 
C 38.796875 5.953125 31.40625 0.390625 23 0.390625 
C 13.90625 0.390625 7 6.84375 7 14.6875 
C 7 22.546875 13.09375 29.09375 20 32.1875 
z
" id="CMR17-56"/>
      </defs>
      <g transform="translate(383.298095 287.130498)scale(0.1 -0.1)">
       <use transform="scale(0.996264)" xlink:href="#CMR17-56"/>
       <use transform="translate(45.690477 0)scale(0.996264)" xlink:href="#CMR17-48"/>
       <use transform="translate(91.380954 0)scale(0.996264)" xlink:href="#CMR17-48"/>
      </g>
     </g>
    </g>
    <g id="text_15">
     <!-- $p_{\text{T},\mathrm{j}_1} [\si{\giga\electronvolt}]$ -->
     <g transform="translate(201.62417 301.452873)scale(0.1 -0.1)">
      <use transform="translate(0 25.404611)scale(0.996264)" xlink:href="#CMMI12-112"/>
      <use transform="translate(48.959514 10.460696)scale(0.697382)" xlink:href="#CMR17-84"/>
      <use transform="translate(95.516219 10.460696)scale(0.697382)" xlink:href="#CMMI12-59"/>
      <use transform="translate(114.484152 10.460696)scale(0.697382)" xlink:href="#CMR17-106"/>
      <use transform="translate(133.715516 0)scale(0.498132)" xlink:href="#CMR17-49"/>
      <use transform="translate(157.557019 25.404611)scale(0.996264)" xlink:href="#CMR17-91"/>
      <use transform="translate(182.428077 25.404611)scale(0.996264)" xlink:href="#CMR17-71"/>
      <use transform="translate(254.783423 25.404611)scale(0.996264)" xlink:href="#CMR17-101"/>
      <use transform="translate(295.269084 25.404611)scale(0.996264)" xlink:href="#CMR17-86"/>
      <use transform="translate(365.64268 25.404611)scale(0.996264)" xlink:href="#CMR17-93"/>
     </g>
    </g>
   </g>
   <g id="matplotlib.axis_4">
    <g id="ytick_19">
     <g id="line2d_43">
      <g>
       <use style="stroke:#000000;stroke-width:0.8;" x="45.720587" xlink:href="#mfcb314a09a" y="252.759762"/>
      </g>
     </g>
     <g id="text_16">
      <!-- $-25$ -->
      <g transform="translate(21.009173 256.219011)scale(0.1 -0.1)">
       <use transform="scale(0.996264)" xlink:href="#CMSY10-0"/>
       <use transform="translate(77.487468 0)scale(0.996264)" xlink:href="#CMR17-50"/>
       <use transform="translate(123.177945 0)scale(0.996264)" xlink:href="#CMR17-53"/>
      </g>
     </g>
    </g>
    <g id="ytick_20">
     <g id="line2d_44">
      <g>
       <use style="stroke:#000000;stroke-width:0.8;" x="45.720587" xlink:href="#mfcb314a09a" y="226.641641"/>
      </g>
     </g>
     <g id="text_17">
      <!-- $0$ -->
      <g transform="translate(33.739252 230.10089)scale(0.1 -0.1)">
       <use transform="scale(0.996264)" xlink:href="#CMR17-48"/>
      </g>
     </g>
    </g>
    <g id="text_18">
     <!-- $\delta [\%]$ -->
     <defs>
      <path d="M 26 43.671875 
C 13.203125 40.578125 4 27.3125 4 15.640625 
C 4 4.984375 11.203125 -1 19.203125 -1 
C 31 -1 39 15.15625 39 28.40625 
C 39 37.375 34.796875 42.875 32.296875 46.15625 
C 28.59375 50.84375 22.59375 58.53125 22.59375 63.3125 
C 22.59375 65.015625 23.90625 68 28.296875 68 
C 31.40625 68 33.296875 66.90625 36.296875 65.203125 
C 37.203125 64.59375 39.5 63.3125 40.796875 63.3125 
C 42.90625 63.3125 44.40625 65.390625 44.40625 66.984375 
C 44.40625 68.890625 42.90625 69.1875 39.40625 69.984375 
C 34.703125 70.984375 33.296875 70.984375 31.59375 70.984375 
C 29.90625 70.984375 20.09375 70.984375 20.09375 60.8125 
C 20.09375 55.921875 22.59375 50.25 26 43.671875 
M 27.09375 41.703125 
C 30.90625 33.828125 32.40625 30.84375 32.40625 24.375 
C 32.40625 16.609375 28.203125 0.984375 19.296875 0.984375 
C 15.40625 0.984375 9.796875 3.578125 9.796875 12.828125 
C 9.796875 19.296875 13.5 38.109375 27.09375 41.703125 
" id="CMMI12-14"/>
      <path d="M 72.5 14.984375 
C 72.5 26.53125 66.796875 35 60.09375 35 
C 53.296875 35 46.40625 27.125 46.40625 14.984375 
C 46.40625 2.859375 53.203125 -5 60.09375 -5 
C 66.796875 -5 72.5 3.359375 72.5 14.984375 
M 60.203125 -3.40625 
C 57.59375 -3.40625 51.09375 -1.03125 51.09375 14.984375 
C 51.09375 31.109375 57.59375 33.40625 60.203125 33.40625 
C 65.703125 33.40625 70.703125 25.53125 70.703125 14.984375 
C 70.703125 4.453125 65.703125 -3.40625 60.203125 -3.40625 
M 63.796875 71.515625 
C 64.5 72.609375 64.59375 72.703125 64.59375 73.203125 
C 64.59375 74.390625 63.703125 75 62.90625 75 
C 61.90625 75 61.5 74.3125 60.796875 73.53125 
C 55 65.46875 47 64.59375 42.90625 64.59375 
C 32.90625 64.59375 26.796875 70.21875 24.90625 71.984375 
C 23.59375 73.15625 21.703125 75 18.296875 75 
C 11.5 75 4.59375 67.125 4.59375 54.984375 
C 4.59375 42.859375 11.40625 35 18.296875 35 
C 25 35 30.703125 43.40625 30.703125 55.109375 
C 30.703125 62.015625 28.59375 66.71875 28.296875 67.3125 
C 34.40625 63.5 40.40625 63 43 63 
C 49.40625 63 54 65.359375 56.5 67.015625 
L 56.59375 66.921875 
L 13.40625 -1.3125 
C 12.5 -2.71875 12.5 -2.921875 12.5 -3.21875 
C 12.5 -4.3125 13.40625 -5 14.296875 -5 
C 15.203125 -5 15.5 -4.515625 16.203125 -3.40625 
z
M 18.40625 36.59375 
C 15.796875 36.59375 9.296875 38.96875 9.296875 54.984375 
C 9.296875 71.109375 15.796875 73.40625 18.40625 73.40625 
C 23.90625 73.40625 28.90625 65.53125 28.90625 54.984375 
C 28.90625 44.453125 23.90625 36.59375 18.40625 36.59375 
" id="CMR17-37"/>
     </defs>
     <g transform="translate(14.518513 250.080282)rotate(-90)scale(0.1 -0.1)">
      <use transform="scale(0.996264)" xlink:href="#CMMI12-14"/>
      <use transform="translate(46.941386 0)scale(0.996264)" xlink:href="#CMR17-91"/>
      <use transform="translate(71.812445 0)scale(0.996264)" xlink:href="#CMR17-37"/>
      <use transform="translate(148.732035 0)scale(0.996264)" xlink:href="#CMR17-93"/>
     </g>
    </g>
   </g>
   <g id="line2d_45">
    <path clip-path="url(#p9bd25df1a0)" d="M 61.953314 226.641641 
L 61.953314 226.641641 
L 70.27779 226.641641 
L 70.27779 226.641641 
L 78.602266 226.641641 
L 78.602266 226.641641 
L 86.926741 226.641641 
L 86.926741 226.641641 
L 95.251217 226.641641 
L 95.251217 226.641641 
L 103.575692 226.641641 
L 103.575692 226.641641 
L 111.900168 226.641641 
L 111.900168 226.641641 
L 120.224643 226.641641 
L 120.224643 226.641641 
L 128.549119 226.641641 
L 128.549119 226.641641 
L 136.873594 226.641641 
L 136.873594 226.641641 
L 145.19807 226.641641 
L 145.19807 226.641641 
L 153.522545 226.641641 
L 153.522545 226.641641 
L 161.847021 226.641641 
L 161.847021 226.641641 
L 170.171496 226.641641 
L 170.171496 226.641641 
L 178.495972 226.641641 
L 178.495972 226.641641 
L 186.820447 226.641641 
L 186.820447 226.641641 
L 195.144923 226.641641 
L 195.144923 226.641641 
L 203.469398 226.641641 
L 203.469398 226.641641 
L 211.793874 226.641641 
L 211.793874 226.641641 
L 220.118349 226.641641 
L 220.118349 226.641641 
L 228.442825 226.641641 
L 228.442825 226.641641 
L 236.767301 226.641641 
L 236.767301 226.641641 
L 245.091776 226.641641 
L 245.091776 226.641641 
L 253.416252 226.641641 
L 253.416252 226.641641 
L 261.740727 226.641641 
L 261.740727 226.641641 
L 270.065203 226.641641 
L 270.065203 226.641641 
L 278.389678 226.641641 
L 278.389678 226.641641 
L 286.714154 226.641641 
L 286.714154 226.641641 
L 295.038629 226.641641 
L 295.038629 226.641641 
L 303.363105 226.641641 
L 303.363105 226.641641 
L 311.68758 226.641641 
L 311.68758 226.641641 
L 320.012056 226.641641 
L 320.012056 226.641641 
L 328.336531 226.641641 
L 328.336531 226.641641 
L 336.661007 226.641641 
L 336.661007 226.641641 
L 344.985482 226.641641 
L 344.985482 226.641641 
L 353.309958 226.641641 
L 353.309958 226.641641 
L 361.634433 226.641641 
L 361.634433 226.641641 
L 369.958909 226.641641 
L 369.958909 226.641641 
L 378.283384 226.641641 
L 378.283384 226.641641 
L 386.60786 226.641641 
" style="fill:none;stroke:#0000ff;stroke-linecap:square;"/>
   </g>
   <g id="line2d_46">
    <path clip-path="url(#p9bd25df1a0)" d="M 61.953314 226.641641 
L 61.953314 226.641641 
L 70.27779 226.641641 
L 70.27779 235.096865 
L 78.602266 235.096865 
L 78.602266 237.216347 
L 86.926741 237.216347 
L 86.926741 238.955187 
L 95.251217 238.955187 
L 95.251217 239.962523 
L 103.575692 239.962523 
L 103.575692 240.524113 
L 111.900168 240.524113 
L 111.900168 241.041563 
L 120.224643 241.041563 
L 120.224643 242.703716 
L 128.549119 242.703716 
L 128.549119 243.430777 
L 136.873594 243.430777 
L 136.873594 243.778911 
L 145.19807 243.778911 
L 145.19807 244.590787 
L 153.522545 244.590787 
L 153.522545 244.778458 
L 161.847021 244.778458 
L 161.847021 245.942516 
L 170.171496 245.942516 
L 170.171496 246.874928 
L 178.495972 246.874928 
L 178.495972 247.315269 
L 186.820447 247.315269 
L 186.820447 248.003967 
L 195.144923 248.003967 
L 195.144923 248.4874 
L 203.469398 248.4874 
L 203.469398 249.994737 
L 211.793874 249.994737 
L 211.793874 250.271389 
L 220.118349 250.271389 
L 220.118349 249.938937 
L 228.442825 249.938937 
L 228.442825 251.45863 
L 236.767301 251.45863 
L 236.767301 251.140538 
L 245.091776 251.140538 
L 245.091776 252.318603 
L 253.416252 252.318603 
L 253.416252 252.559891 
L 261.740727 252.559891 
L 261.740727 253.060028 
L 270.065203 253.060028 
L 270.065203 253.561088 
L 278.389678 253.561088 
L 278.389678 254.006357 
L 286.714154 254.006357 
L 286.714154 255.052024 
L 295.038629 255.052024 
L 295.038629 255.558452 
L 303.363105 255.558452 
L 303.363105 255.601246 
L 311.68758 255.601246 
L 311.68758 254.866553 
L 320.012056 254.866553 
L 320.012056 256.611969 
L 328.336531 256.611969 
L 328.336531 256.759548 
L 336.661007 256.759548 
L 336.661007 256.739641 
L 344.985482 256.739641 
L 344.985482 257.350052 
L 353.309958 257.350052 
L 353.309958 257.966351 
L 361.634433 257.966351 
L 361.634433 257.88152 
L 369.958909 257.88152 
L 369.958909 258.355809 
L 378.283384 258.355809 
L 378.283384 258.49644 
L 386.60786 258.49644 
" style="fill:none;stroke:#ff0000;stroke-linecap:square;"/>
   </g>
   <g id="patch_9">
    <path d="M 45.720587 273.212 
L 45.720587 208.306634 
" style="fill:none;stroke:#000000;stroke-linecap:square;stroke-linejoin:miter;stroke-width:0.8;"/>
   </g>
   <g id="patch_10">
    <path d="M 402.840587 273.212 
L 402.840587 208.306634 
" style="fill:none;stroke:#000000;stroke-linecap:square;stroke-linejoin:miter;stroke-width:0.8;"/>
   </g>
   <g id="patch_11">
    <path d="M 45.720587 273.212 
L 402.840587 273.212 
" style="fill:none;stroke:#000000;stroke-linecap:square;stroke-linejoin:miter;stroke-width:0.8;"/>
   </g>
   <g id="patch_12">
    <path d="M 45.720587 208.306634 
L 402.840587 208.306634 
" style="fill:none;stroke:#000000;stroke-linecap:square;stroke-linejoin:miter;stroke-width:0.8;"/>
   </g>
  </g>
 </g>
 <defs>
  <clipPath id="p8858f37f0d">
   <rect height="194.716098" width="357.12" x="45.720587" y="7.1"/>
  </clipPath>
  <clipPath id="p9bd25df1a0">
   <rect height="64.905366" width="357.12" x="45.720587" y="208.306634"/>
  </clipPath>
 </defs>
</svg>
